<?xml version="1.0" encoding="UTF-8"?>
<svg width="25px" height="23px" viewBox="0 0 25 23" version="1.1" xmlns="http://www.w3.org/2000/svg" xmlns:xlink="http://www.w3.org/1999/xlink">
    <!-- Generator: Sketch 63.1 (92452) - https://sketch.com -->
    <title>cart</title>
    <desc>Created with Sketch.</desc>
    <g id="Page-1" stroke="none" stroke-width="1" fill="none" fill-rule="evenodd">
        <g id="Review-Cart" transform="translate(-1126.000000, -16.000000)" fill="#FFFFFF" fill-rule="nonzero">
            <g id="Group" transform="translate(1126.000000, 16.000000)">
                <g id="cart">
                    <path d="M0.562973712,4.29455518e-06 C0.253685712,4.29455518e-06 0.002973712,0.2507428 0.002973712,0.5600224 C0.002973712,0.869302 0.253685712,1.1200224 0.562973712,1.1200224 L3.4679736,1.1200224 L6.4167096,15.0675336 C6.386646,15.3865936 6.6829056,15.6961336 7.00297371,15.6800336 L21.0029737,15.6800336 C21.2988292,15.6842336 21.5709528,15.4159376 21.5709528,15.1200336 C21.5709528,14.8241576 21.2988292,14.5558616 21.0029737,14.5600336 L7.4579736,14.5600336 L6.9854736,12.3200336 L22.1229728,12.3200336 C22.3737016,12.3172336 22.6106124,12.1271976 22.6654728,11.8825336 L24.6254728,3.4825252 C24.698298,3.1575236 24.4160272,2.8024052 24.0829728,2.8000252 L4.9729736,2.8000252 L4.4742376,0.4375224 C4.4187388,0.190008 4.1766228,-0.002142 3.9229736,4.29455518e-06 L0.562973712,4.29455518e-06 Z M5.2092376,3.9200252 L23.3829728,3.9200252 L21.6767088,11.2000336 L6.7492376,11.2000336 L5.2092376,3.9200252 Z M10.0829736,17.3600056 C8.6978696,17.3600056 7.5629736,18.4948736 7.5629736,19.8800056 C7.5629736,21.2651376 8.6978696,22.4000056 10.0829736,22.4000056 C11.4681056,22.4000056 12.6029736,21.2651376 12.6029736,19.8800056 C12.6029736,18.4948736 11.4681056,17.3600056 10.0829736,17.3600056 Z M17.9229736,17.3600056 C16.5378696,17.3600056 15.4029736,18.4948736 15.4029736,19.8800056 C15.4029736,21.2651376 16.5378696,22.4000056 17.9229736,22.4000056 C19.3081048,22.4000056 20.4429728,21.2651376 20.4429728,19.8800056 C20.4429728,18.4948736 19.3081048,17.3600056 17.9229736,17.3600056 L17.9229736,17.3600056 Z M10.0829736,18.4800056 C10.8628016,18.4800056 11.4829736,19.1001776 11.4829736,19.8800056 C11.4829736,20.6598336 10.8628016,21.2800056 10.0829736,21.2800056 C9.3031736,21.2800056 8.6829736,20.6598336 8.6829736,19.8800056 C8.6829736,19.1001776 9.3031736,18.4800056 10.0829736,18.4800056 Z M17.9229736,18.4800056 C18.7028008,18.4800056 19.3229728,19.1001776 19.3229728,19.8800056 C19.3229728,20.6598336 18.7028008,21.2800056 17.9229736,21.2800056 C17.1431736,21.2800056 16.5229736,20.6598336 16.5229736,19.8800056 C16.5229736,19.1001776 17.1431736,18.4800056 17.9229736,18.4800056 Z" id="Shape"></path>
                </g>
            </g>
        </g>
    </g>
</svg>